<svg id="Layer_1" data-name="Layer 1" xmlns="http://www.w3.org/2000/svg" viewBox="0 0 93.71 80"><defs><style>.cls-1{fill:#fff;}</style></defs><path class="cls-1" d="M60.94,29.3a3.19,3.19,0,0,0-2.42,1.1L39.9,51.7,30.6,41.54a2.85,2.85,0,0,0-4.07,0l-11.83,13V62.7H78.91V48.23L63.36,30.4A3.2,3.2,0,0,0,60.94,29.3Z"/><circle class="cls-1" cx="21.46" cy="24.17" r="5.12"/><path class="cls-1" d="M91.26,2.5H2.45A2.42,2.42,0,0,0,0,5v70.1A2.42,2.42,0,0,0,2.45,77.5H91.26a2.42,2.42,0,0,0,2.45-2.45V5A2.42,2.42,0,0,0,91.26,2.5ZM88.82,72.61H4.89V7.39H88.82Z"/></svg>