<svg id="Layer_1" data-name="Layer 1" xmlns="http://www.w3.org/2000/svg" viewBox="0 0 100 28.32"><defs><style>.cls-1{fill:#1f0888;}.cls-2{fill:#5fd672;}</style></defs><path class="cls-1" d="M43.39,9.58V18.8H41.55V12.36L39.18,18.8H37.57l-2.36-6.41V18.8H33.35V9.58H35.6l2.8,6.93,2.75-6.93Z"/><path class="cls-1" d="M49.2,11.82A2.37,2.37,0,0,1,50.14,13V11.48H52V18.8H50.14V17.26a2.4,2.4,0,0,1-.94,1.19,2.79,2.79,0,0,1-1.58.44A3.11,3.11,0,0,1,46,18.44a3,3,0,0,1-1.16-1.3,4.5,4.5,0,0,1-.42-2,4.47,4.47,0,0,1,.42-2A3,3,0,0,1,46,11.84a3.11,3.11,0,0,1,1.66-.45A2.79,2.79,0,0,1,49.2,11.82Zm-2.4,1.76a2.22,2.22,0,0,0-.53,1.56,2.17,2.17,0,0,0,.53,1.55,2,2,0,0,0,2.79,0,2.14,2.14,0,0,0,.55-1.54,2.13,2.13,0,0,0-.55-1.55,2,2,0,0,0-2.79,0Z"/><path class="cls-1" d="M59.38,11.84a3,3,0,0,1,1.16,1.3,4.47,4.47,0,0,1,.42,2,4.5,4.5,0,0,1-.42,2,3,3,0,0,1-1.16,1.3,3.11,3.11,0,0,1-1.66.45,2.79,2.79,0,0,1-1.58-.44,2.49,2.49,0,0,1-.93-1.19v5H53.35V11.48h1.86V13a2.47,2.47,0,0,1,.93-1.18,2.79,2.79,0,0,1,1.58-.43A3.11,3.11,0,0,1,59.38,11.84Zm-3.63,1.75a2.13,2.13,0,0,0-.55,1.55,2.14,2.14,0,0,0,.55,1.54,2,2,0,0,0,2.79,0,2.17,2.17,0,0,0,.53-1.55,2.22,2.22,0,0,0-.53-1.56,2,2,0,0,0-2.79,0Z"/><path class="cls-1" d="M68,17.56a2.52,2.52,0,0,1-1,1,3.6,3.6,0,0,1-1.71.37,4.33,4.33,0,0,1-1.77-.34,3,3,0,0,1-1.24-1,2.77,2.77,0,0,1-.54-1.48h2a1.58,1.58,0,0,0,.46.95,1.42,1.42,0,0,0,1,.37,1.22,1.22,0,0,0,.9-.31,1.18,1.18,0,0,0,.06-1.52,1.76,1.76,0,0,0-.64-.45,10.47,10.47,0,0,0-1-.4A9.62,9.62,0,0,1,63,14.17a2.57,2.57,0,0,1-.94-.83,2.35,2.35,0,0,1-.39-1.41,2.31,2.31,0,0,1,.86-1.9,3.57,3.57,0,0,1,2.29-.69,3.67,3.67,0,0,1,2.36.71,2.73,2.73,0,0,1,1,1.91h-2a1.44,1.44,0,0,0-.42-.83,1.31,1.31,0,0,0-.94-.32,1.22,1.22,0,0,0-.83.27,1.1,1.1,0,0,0-.08,1.46,2.06,2.06,0,0,0,.62.45c.26.11.6.24,1,.38A15,15,0,0,1,67,14a2.59,2.59,0,0,1,1,.83,2.43,2.43,0,0,1,.4,1.46A2.51,2.51,0,0,1,68,17.56Z"/><path class="cls-1" d="M75,12.15a3.36,3.36,0,0,1,1.18,2.09h-2a1.54,1.54,0,0,0-.54-.92A1.69,1.69,0,0,0,72.64,13a1.6,1.6,0,0,0-1.23.54,2.33,2.33,0,0,0-.5,1.61,2.31,2.31,0,0,0,.5,1.6,1.58,1.58,0,0,0,1.23.55A1.63,1.63,0,0,0,73.71,17a1.52,1.52,0,0,0,.54-.91h2A3.33,3.33,0,0,1,75,18.12a3.64,3.64,0,0,1-2.36.77,3.82,3.82,0,0,1-1.9-.46,3.11,3.11,0,0,1-1.29-1.3,4.07,4.07,0,0,1-.47-2,4.11,4.11,0,0,1,.47-2,3.11,3.11,0,0,1,1.29-1.3,3.92,3.92,0,0,1,1.9-.45A3.63,3.63,0,0,1,75,12.15Z"/><path class="cls-1" d="M81.66,11.82A2.43,2.43,0,0,1,82.6,13V11.48h1.85V18.8H82.6V17.26a2.45,2.45,0,0,1-.94,1.19,2.82,2.82,0,0,1-1.58.44,3.14,3.14,0,0,1-1.67-.45,3,3,0,0,1-1.15-1.3,4.5,4.5,0,0,1-.42-2,4.47,4.47,0,0,1,.42-2,3,3,0,0,1,1.15-1.3,3.14,3.14,0,0,1,1.67-.45A2.81,2.81,0,0,1,81.66,11.82Zm-2.4,1.76a2.17,2.17,0,0,0-.53,1.56,2.13,2.13,0,0,0,.53,1.55,2,2,0,0,0,2.79,0,2.18,2.18,0,0,0,.55-1.54,2.17,2.17,0,0,0-.55-1.55,2,2,0,0,0-2.79,0Z"/><path class="cls-1" d="M92.18,12.21a3.3,3.3,0,0,1,.76,2.33V18.8H91.09V14.75a1.9,1.9,0,0,0-.45-1.35,1.6,1.6,0,0,0-1.23-.48,1.66,1.66,0,0,0-1.27.51,2.15,2.15,0,0,0-.47,1.48V18.8H85.81V11.48h1.86V13a2.31,2.31,0,0,1,1-1.16,2.85,2.85,0,0,1,1.54-.42A2.57,2.57,0,0,1,92.18,12.21Z"/><path class="cls-1" d="M98.9,12.06a2.91,2.91,0,0,1,1,1.8H98.16a1.35,1.35,0,0,0-1.43-1.16,1.09,1.09,0,0,0-.74.22.75.75,0,0,0-.27.61.64.64,0,0,0,.21.49,1.58,1.58,0,0,0,.53.29c.21.07.52.15.91.25a8.57,8.57,0,0,1,1.36.39,2.23,2.23,0,0,1,.89.64,1.82,1.82,0,0,1,.38,1.2,1.85,1.85,0,0,1-.73,1.52,3.15,3.15,0,0,1-2,.58A3.76,3.76,0,0,1,95,18.25a2.7,2.7,0,0,1-1-1.83h1.78a1.2,1.2,0,0,0,.47.85,1.72,1.72,0,0,0,1.07.31,1.06,1.06,0,0,0,.73-.23.76.76,0,0,0,.25-.6.67.67,0,0,0-.22-.52,1.41,1.41,0,0,0-.54-.3c-.21-.07-.52-.15-.92-.25a9.59,9.59,0,0,1-1.32-.38,2.12,2.12,0,0,1-.88-.61A1.73,1.73,0,0,1,94,13.53,1.9,1.9,0,0,1,94.76,12a3.11,3.11,0,0,1,2-.59A3.2,3.2,0,0,1,98.9,12.06Z"/><path class="cls-2" d="M14.16,28.32A14.16,14.16,0,1,1,19.22.93a1.87,1.87,0,1,1-1.33,3.49,10.43,10.43,0,1,0,6.69,9.74,10.34,10.34,0,0,0-.9-4.26,1.86,1.86,0,1,1,3.4-1.53,14.16,14.16,0,0,1-12.92,20Z"/><path class="cls-2" d="M19.08,11.67l-4.36-3a1,1,0,0,0-.56-.18,1,1,0,0,0-.57.18l-4.35,3a1,1,0,0,0-.43.81v5a1,1,0,0,0,1,1h8.72a1,1,0,0,0,1-1v-5A1,1,0,0,0,19.08,11.67Z"/></svg>