<svg id="Layer_1" data-name="Layer 1" xmlns="http://www.w3.org/2000/svg" viewBox="0 0 107.48 80"><defs><style>.cls-1{fill:#fff;}</style></defs><path class="cls-1" d="M100.82,30.39a52.19,52.19,0,0,0-15.28-5.88l-.1,0V15.71a1.58,1.58,0,0,0-.91-1.45L54.41.4a1.55,1.55,0,0,0-1.33,0L23,14.26a1.58,1.58,0,0,0-.91,1.45v8.84l-.1,0A54.89,54.89,0,0,0,6.78,30.4C2.28,33.17,0,36.3,0,39.69c0,4.56,4.22,8.71,12.2,12A69.65,69.65,0,0,0,22,54.81l.1,0v9.46A1.58,1.58,0,0,0,23,65.74L53.09,79.6a1.55,1.55,0,0,0,1.33,0L84.53,65.74a1.58,1.58,0,0,0,.91-1.45V54.82l.1,0c14.15-3.51,21.94-8.87,21.94-15.1C107.48,35.44,103.86,32.29,100.82,30.39ZM22.06,51.56l-.16,0C10.37,48.57,3.2,44,3.2,39.69c0-2.75,2.86-5.1,5.27-6.58A50.12,50.12,0,0,1,21.9,27.88l.16,0ZM25.25,18.2l26.9,12.48V51.82L41.94,45.13a1.59,1.59,0,0,0-2.47,1.33v8h-.13a119.81,119.81,0,0,1-14-2.1l-.1,0Zm26.9,57.47L52,75.58,25.25,63.27V55.56l.15,0a126.26,126.26,0,0,0,14,2.06h.11v8.73a1.6,1.6,0,0,0,2.47,1.33L52.15,61ZM42.66,63.43v-14l10.69,7ZM53.75,27.91,27.42,15.71,53.75,3.6l0,0L80.08,15.71ZM82.25,52.3l-.1,0a122,122,0,0,1-16.48,2.33,1.6,1.6,0,0,0,.12,3.19h.12A127.91,127.91,0,0,0,82.1,55.57l.15,0v7.73l-.07,0L55.35,75.67V58.93l1.78-1.17a1.58,1.58,0,0,0,.72-1.34,1.55,1.55,0,0,0-.72-1.33l-1.78-1.17V30.69l.07,0L82.25,18.21Zm11.62-3.46h0a66.81,66.81,0,0,1-8.26,2.67l-.16,0V27.78l.16,0c11.7,3,18.69,7.4,18.69,11.87C104.29,42.81,100.49,46.14,93.87,48.84Z"/><path class="cls-1" d="M58,56.42a1.72,1.72,0,0,1-.78,1.44L55.47,59V75.47L82.13,63.19V55.7A128.2,128.2,0,0,1,65.92,58H65.8a1.72,1.72,0,0,1-.14-3.43A122,122,0,0,0,82.13,52.2V18.4L55.47,30.77V53.85L57.2,55A1.69,1.69,0,0,1,58,56.42ZM55.59,30.84,82,18.6V52.1a123.26,123.26,0,0,1-16.35,2.31,1.84,1.84,0,0,0,.14,3.68h.14A128,128,0,0,0,82,55.85v7.26L55.59,75.28V59.06L57.27,58a1.85,1.85,0,0,0,0-3.09l-1.68-1.1Z"/><path class="cls-1" d="M85.57,27.94V51.39a68.34,68.34,0,0,0,8.25-2.66c6.58-2.68,10.35-6,10.35-9C104.17,35.31,97.17,30.88,85.57,27.94Zm8.2,20.67a67.37,67.37,0,0,1-8.08,2.62V28.1C97.19,31,104,35.36,104,39.69,104,42.7,100.3,46,93.77,48.61Z"/><path class="cls-1" d="M42.79,49.64V63.2l10.33-6.78Zm.12.24,10,6.54L42.91,63Z"/><path class="cls-1" d="M3.32,39.69c0,3.94,6.36,8.58,18.61,11.71V28a49.15,49.15,0,0,0-13.4,5.22C6.16,34.68,3.32,37,3.32,39.69ZM21.81,28.16V51.24C10.65,48.36,3.45,43.83,3.45,39.69c0-2.64,2.8-4.92,5.15-6.37A49.32,49.32,0,0,1,21.81,28.16Z"/><path class="cls-1" d="M101,30.18a52.09,52.09,0,0,0-15.26-5.89V15.71a1.85,1.85,0,0,0-1-1.68L54.51.17A1.8,1.8,0,0,0,53,.17L22.86,14a1.84,1.84,0,0,0-1.05,1.68v8.64A55.43,55.43,0,0,0,6.65,30.18c-4.58,2.83-6.9,6-6.9,9.51,0,4.67,4.27,8.9,12.35,12.24A69,69,0,0,0,21.81,55v9.26A1.84,1.84,0,0,0,22.87,66L53,79.83a1.81,1.81,0,0,0,1.53,0L84.64,66a1.82,1.82,0,0,0,1-1.67V55c14.21-3.54,22-9,22-15.32C107.73,35.33,104,32.11,101,30.18ZM85.57,54.91v9.38a1.71,1.71,0,0,1-1,1.56L54.47,79.72a1.7,1.7,0,0,1-1.43,0L22.92,65.85a1.71,1.71,0,0,1-1-1.56V54.93a68.65,68.65,0,0,1-9.78-3.12C4.13,48.5-.12,44.31-.12,39.69c0-3.44,2.3-6.6,6.84-9.4a55,55,0,0,1,15.21-5.84V15.71a1.72,1.72,0,0,1,1-1.56L53,.28a1.7,1.7,0,0,1,1.43,0L84.58,14.15a1.71,1.71,0,0,1,1,1.56v8.68a52.55,52.55,0,0,1,15.31,5.89c3.07,1.92,6.73,5.11,6.73,9.41C107.61,46.69,98,51.82,85.57,54.91Z"/><path class="cls-1" d="M53.75,3.74l-26,12,26,12.06,26-12.06Zm0,23.89L28,15.72,53.75,3.87,79.48,15.72Z"/><path class="cls-1" d="M40.25,67.9a1.71,1.71,0,0,1-.9-1.51V57.77a124.28,124.28,0,0,1-14-2.06v7.48L52,75.47V61.25L42,67.82A1.71,1.71,0,0,1,40.25,67.9Zm1.83,0,9.83-6.45v13.8L25.5,63.11V55.86a124.66,124.66,0,0,0,13.72,2v8.5a1.83,1.83,0,0,0,1,1.62A1.86,1.86,0,0,0,42.08,67.93Z"/><path class="cls-1" d="M39.35,46.46a1.71,1.71,0,0,1,.9-1.51A1.73,1.73,0,0,1,42,45l10,6.57V30.76L25.37,18.4V52.21a120,120,0,0,0,14,2.11Zm-.13,7.72A119.83,119.83,0,0,1,25.5,52.11V18.6L51.91,30.84V51.36l-9.83-6.44a1.85,1.85,0,0,0-2.86,1.54Z"/><path class="cls-1" d="M55.35,30.69V53.92l1.78,1.17a1.55,1.55,0,0,1,.72,1.33,1.58,1.58,0,0,1-.72,1.34l-1.78,1.17V75.67L82.18,63.3l.07,0V55.54l-.15,0a127.91,127.91,0,0,1-16.19,2.27h-.12a1.6,1.6,0,0,1-.12-3.19,122,122,0,0,0,16.48-2.33l.1,0V18.21L55.42,30.65Zm.12.08L82.13,18.4V52.2a122,122,0,0,1-16.47,2.33A1.72,1.72,0,0,0,65.8,58h.12A128.2,128.2,0,0,0,82.13,55.7v7.49L55.47,75.47V59l1.73-1.14A1.72,1.72,0,0,0,58,56.42,1.69,1.69,0,0,0,57.2,55l-1.73-1.14Z"/><path class="cls-1" d="M100.88,30.28a52.55,52.55,0,0,0-15.31-5.89V15.71a1.71,1.71,0,0,0-1-1.56L54.46.28A1.7,1.7,0,0,0,53,.28L22.91,14.15a1.72,1.72,0,0,0-1,1.56v8.74A55,55,0,0,0,6.72,30.29c-4.54,2.8-6.84,6-6.84,9.4,0,4.62,4.25,8.81,12.27,12.12a68.65,68.65,0,0,0,9.78,3.12v9.36a1.71,1.71,0,0,0,1,1.56L53,79.72a1.7,1.7,0,0,0,1.43,0L84.58,65.85a1.71,1.71,0,0,0,1-1.56V54.91c12.46-3.09,22-8.22,22-15.22C107.61,35.39,104,32.2,100.88,30.28ZM85.54,54.79l-.1,0v9.47a1.58,1.58,0,0,1-.91,1.45L54.42,79.6a1.55,1.55,0,0,1-1.33,0L23,65.74a1.58,1.58,0,0,1-.91-1.45V54.83l-.1,0A69.65,69.65,0,0,1,12.2,51.7c-8-3.3-12.2-7.45-12.2-12,0-3.39,2.28-6.52,6.78-9.29A54.89,54.89,0,0,1,22,24.57l.1,0V15.71A1.58,1.58,0,0,1,23,14.26L53.08.4a1.55,1.55,0,0,1,1.33,0L84.53,14.26a1.58,1.58,0,0,1,.91,1.45v8.78l.1,0a52.19,52.19,0,0,1,15.28,5.88c3,1.9,6.66,5,6.66,9.3C107.48,45.92,99.69,51.28,85.54,54.79Z"/><path class="cls-1" d="M85.6,27.82l-.16,0V51.55l.16,0a66.81,66.81,0,0,0,8.26-2.67h0c6.62-2.7,10.42-6,10.42-9.15C104.29,35.22,97.3,30.78,85.6,27.82Zm8.22,20.91a68.34,68.34,0,0,1-8.25,2.66V27.94c11.6,2.94,18.6,7.37,18.6,11.75C104.17,42.75,100.4,46.05,93.82,48.73Z"/><path class="cls-1" d="M53.8,3.62l0,0L27.42,15.71l26.33,12.2,26.33-12.2ZM27.72,15.71l26-12,26,12-26,12.06Z"/><path class="cls-1" d="M8.47,33.11C6.06,34.59,3.2,36.94,3.2,39.69c0,4.35,7.17,8.88,18.7,11.83l.16,0V27.84l-.16,0A50.12,50.12,0,0,0,8.47,33.11ZM21.93,51.4C9.68,48.27,3.32,43.63,3.32,39.69c0-2.7,2.84-5,5.21-6.47A49.15,49.15,0,0,1,21.93,28Z"/><path class="cls-1" d="M39.34,54.44h.13v-8a1.59,1.59,0,0,1,2.47-1.33l10.21,6.69V30.68L25.25,18.2V52.32l.1,0A119.81,119.81,0,0,0,39.34,54.44Zm-14-36L52,30.76V51.59L42,45A1.73,1.73,0,0,0,40.25,45a1.71,1.71,0,0,0-.9,1.51v7.86a120,120,0,0,1-14-2.11Z"/><path class="cls-1" d="M42.66,63.43l10.69-7-10.69-7Zm.13-13.79,10.33,6.78L42.79,63.2Z"/><path class="cls-1" d="M40.31,67.79a1.59,1.59,0,0,1-.84-1.4V57.66h-.11a126.26,126.26,0,0,1-14-2.06l-.15,0v7.71L52,75.58l.17.09V61l-10.21,6.7A1.59,1.59,0,0,1,40.31,67.79ZM52,61.25V75.47L25.37,63.19V55.71a124.28,124.28,0,0,0,14,2.06v8.62A1.71,1.71,0,0,0,42,67.82Z"/></svg>