<svg id="Layer_1" data-name="Layer 1" xmlns="http://www.w3.org/2000/svg" viewBox="0 0 80 80"><defs><style>.cls-1{fill:#fff;}</style></defs><path class="cls-1" d="M40,.25A39.75,39.75,0,1,0,79.75,40,39.79,39.79,0,0,0,40,.25Zm0,75.19A35.44,35.44,0,1,1,75.44,40,35.48,35.48,0,0,1,40,75.44Z"/><path class="cls-1" d="M40,0A40,40,0,1,0,80,40,40,40,0,0,0,40,0Zm0,79.87A39.87,39.87,0,1,1,79.87,40,39.88,39.88,0,0,1,40,79.87Z"/><path class="cls-1" d="M40,4.68A35.32,35.32,0,1,0,75.32,40,35.32,35.32,0,0,0,40,4.68Zm0,70.51A35.19,35.19,0,1,1,75.19,40,35.22,35.22,0,0,1,40,75.19Z"/><path class="cls-1" d="M40,4.56A35.44,35.44,0,1,0,75.44,40,35.48,35.48,0,0,0,40,4.56Zm0,70.76A35.32,35.32,0,1,1,75.32,40,35.32,35.32,0,0,1,40,75.32Z"/><path class="cls-1" d="M40,.13A39.87,39.87,0,1,0,79.87,40,39.88,39.88,0,0,0,40,.13Zm0,79.62A39.75,39.75,0,1,1,79.75,40,39.79,39.79,0,0,1,40,79.75Z"/><path class="cls-1" d="M56.46,35.17,36,23.34a5.57,5.57,0,0,0-8.36,4.82V51.84A5.56,5.56,0,0,0,36,56.66L56.46,44.83a5.7,5.7,0,0,0,2-2A5.6,5.6,0,0,0,56.46,35.17ZM54.3,41.1,33.8,52.94a1.34,1.34,0,0,1-1.27,0,1.28,1.28,0,0,1-.63-1.1V28.16a1.28,1.28,0,0,1,.63-1.1,1.27,1.27,0,0,1,.63-.17h0a1.28,1.28,0,0,1,.64.17L54.3,38.9a1.23,1.23,0,0,1,.48.48A1.26,1.26,0,0,1,54.3,41.1Z"/><path class="cls-1" d="M54.24,39,33.73,27.17a1.14,1.14,0,0,0-.57-.16,1.17,1.17,0,0,0-.57.16,1.15,1.15,0,0,0-.57,1V51.84a1.14,1.14,0,0,0,1.71,1L54.24,41a1.13,1.13,0,0,0,.43-1.55A1.11,1.11,0,0,0,54.24,39Zm-.06,1.87L33.67,52.72a1,1,0,0,1-1.52-.88V28.16a1,1,0,0,1,.51-.88,1,1,0,0,1,1,0L54.18,39.12a1,1,0,0,1,.38.38A1,1,0,0,1,54.18,40.88Z"/><path class="cls-1" d="M56.58,35,36.07,23.12a5.82,5.82,0,0,0-8.73,5V51.84a5.77,5.77,0,0,0,2.91,5,5.86,5.86,0,0,0,2.91.79h0a5.8,5.8,0,0,0,2.91-.79L56.58,45a5.8,5.8,0,0,0,2.13-2.13A5.82,5.82,0,0,0,56.58,35Zm2,7.89a5.68,5.68,0,0,1-2.08,2.08L36,56.77a5.58,5.58,0,0,1-5.69,0,5.59,5.59,0,0,1-2.85-4.93V28.16A5.7,5.7,0,0,1,36,23.23L56.52,35.07A5.69,5.69,0,0,1,58.6,42.85Z"/><path class="cls-1" d="M54.3,38.9,33.8,27.06a1.28,1.28,0,0,0-.64-.17h0a1.27,1.27,0,0,0-.63.17,1.28,1.28,0,0,0-.63,1.1V51.84a1.28,1.28,0,0,0,.63,1.1,1.34,1.34,0,0,0,1.27,0L54.3,41.1a1.26,1.26,0,0,0,.48-1.72A1.23,1.23,0,0,0,54.3,38.9ZM54.24,41,33.73,52.83a1.14,1.14,0,0,1-1.71-1V28.16a1.15,1.15,0,0,1,.57-1,1.17,1.17,0,0,1,.57-.16,1.14,1.14,0,0,1,.57.16L54.24,39a1.11,1.11,0,0,1,.43.43A1.13,1.13,0,0,1,54.24,41Z"/><path class="cls-1" d="M56.52,35.07,36,23.23a5.7,5.7,0,0,0-8.54,4.93V51.84a5.59,5.59,0,0,0,2.85,4.93,5.58,5.58,0,0,0,5.69,0L56.52,44.93a5.69,5.69,0,0,0,0-9.86Zm2,7.72a5.7,5.7,0,0,1-2,2L36,56.66a5.58,5.58,0,0,1-8.36-4.82V28.16A5.57,5.57,0,0,1,36,23.34L56.46,35.17A5.6,5.6,0,0,1,58.5,42.79Z"/></svg>